<svg xmlns="http://www.w3.org/2000/svg" xmlns:xlink="http://www.w3.org/1999/xlink" id="Layer_1" x="0px" y="0px" viewBox="0 0 512 154.7" style="enable-background:new 0 0 512 154.7;" xml:space="preserve"><style type="text/css">	.st0{fill:#FF6700;}	.st1{fill:#FFFFFF;}	.st2{opacity:0.72;}	.st3{fill:#CCCAC8;}</style><g>	<path class="st0" d="M411.4,33.6l-25.5,64.3c11.4,6.8,20.5,14.7,22.1,26c0,12.4-19.5,15.2-37,15.1v0h126.5V33.6H411.4z"></path>	<g>		<path d="M20.9,82.6c0,0,20-6.9,32,4.7c0,0,9.1,9.8-12.1,18.2c0,0,19.9,4.5,26.1-8.6c0,0,2.9-6.6-7.2-12.5   C49.5,78.5,34.5,78,20.9,82.6z"></path>		<path class="st0" d="M3.4,99c0,0,7.6,9.1,22.4-2.4c0,0,7.8-6.6,4.5-12.7c0,0,5.6,7.3-2.4,18.2c0,0-6.9,8.6-17.1,8.3   C0.7,110.1,1,102,3.4,99z"></path>		<path class="st0" d="M16.8,91.7c0,0-5.5-11.5,15.3-18.9c0,0,16.1-4.9,23.3,6.3c0,0,7.2-6,0.7-11.7c-6.5-5.7-24-1.1-31.8,4.7   C16.6,77.9,13.6,85.5,16.8,91.7z"></path>		<path d="M51.5,56.2c0,3.2-3.3,5.8-7.4,5.8c-4.1,0-7.4-2.6-7.4-5.8c0-3.2,3.3-5.8,7.4-5.8C48.2,50.4,51.5,53,51.5,56.2z"></path>		<g>			<path d="M108.2,76.3c0,2.5-0.6,4.3-1.9,5.5c-1.3,1.2-3.3,1.9-6,1.9c-2.9,0-5-0.6-6.5-1.9c-1.4-1.2-2.1-3-2.1-5.5v-22H84v22    c0,4.8,1.5,8.3,4.5,10.5c2.8,2.2,6.8,3.2,11.7,3.2c4.9,0,8.7-1.2,11.4-3.4c2.8-2.3,4.2-5.8,4.2-10.4v-22h-7.6V76.3z"></path>			<polygon points="147.8,77.6 130.9,54.3 123.6,54.3 123.6,89.4 131,89.4 131,66.3 147.8,89.4 155.2,89.4 155.2,54.3 147.8,54.3        "></polygon>			<rect x="163.3" y="54.3" width="7.6" height="35.1"></rect>			<polygon points="203.3,77.6 186.4,54.3 179.2,54.3 179.2,89.4 186.5,89.4 186.5,66.3 203.3,89.4 210.7,89.4 210.7,54.3     203.3,54.3    "></polygon>			<path d="M245.1,57.2c-2.1-1.9-5.2-2.9-9.2-2.9h-17.2v35.1h7.6V76.2h9.6c4,0,7.1-0.9,9.2-2.8c2.2-2,3.3-4.7,3.3-8.1    C248.4,61.8,247.3,59.1,245.1,57.2z M226.3,60.8h8c2.4,0,4.1,0.4,5.1,1.2c0.9,0.7,1.4,1.8,1.4,3.3c0,1.5-0.4,2.6-1.4,3.3    c-1,0.8-2.7,1.2-5.1,1.2h-8V60.8z"></path>			<path d="M260.9,54.3l-15.3,35.1h8l4-9.7H271l3.9,9.7h8.4l-15.3-35.1H260.9z M268.4,73.2h-8l4-9.9L268.4,73.2z"></path>			<polygon points="310.1,68.2 294,68.2 294,54.3 286.4,54.3 286.4,89.4 294,89.4 294,74.6 310.1,74.6 310.1,89.4 317.8,89.4     317.8,54.3 310.1,54.3    "></polygon>			<path d="M349.8,54.3v22c0,2.5-0.6,4.3-1.9,5.5c-1.3,1.2-3.3,1.9-6,1.9c-2.9,0-5-0.6-6.5-1.9c-1.4-1.2-2.1-3-2.1-5.5v-22h-7.6v22    c0,4.8,1.5,8.3,4.5,10.5c2.8,2.2,6.8,3.2,11.7,3.2c4.9,0,8.7-1.2,11.4-3.4c2.8-2.3,4.2-5.8,4.2-10.4v-22H349.8z"></path>		</g>		<g>			<path d="M83.9,97.1h1.3v7.8h-1.3V97.1z"></path>			<path d="M92,97.1h1.4l3.5,5.7h0v-5.7h1.3v7.8h-1.4l-3.5-5.7h0v5.7H92V97.1z"></path>			<path d="M105.8,102.2c0,0.3,0.1,0.6,0.2,0.8c0.1,0.2,0.2,0.4,0.4,0.5c0.2,0.1,0.4,0.2,0.6,0.3c0.2,0.1,0.5,0.1,0.8,0.1    c0.3,0,0.5,0,0.8-0.1s0.4-0.2,0.5-0.3c0.1-0.1,0.2-0.2,0.3-0.4c0.1-0.1,0.1-0.3,0.1-0.4c0-0.3-0.1-0.5-0.2-0.7    c-0.1-0.1-0.3-0.2-0.4-0.3c-0.3-0.1-0.6-0.2-1-0.3c-0.4-0.1-0.8-0.2-1.3-0.4c-0.3-0.1-0.6-0.2-0.8-0.3c-0.2-0.1-0.4-0.3-0.5-0.5    c-0.1-0.2-0.2-0.4-0.3-0.6c-0.1-0.2-0.1-0.4-0.1-0.6c0-0.4,0.1-0.7,0.2-1c0.2-0.3,0.4-0.5,0.6-0.7c0.3-0.2,0.6-0.3,0.9-0.4    c0.3-0.1,0.7-0.1,1-0.1c0.4,0,0.8,0.1,1.1,0.2c0.4,0.1,0.7,0.3,0.9,0.5c0.3,0.2,0.5,0.5,0.6,0.8c0.2,0.3,0.2,0.7,0.2,1.1h-1.3    c0-0.5-0.2-0.9-0.5-1.1c-0.3-0.2-0.7-0.3-1.2-0.3c-0.2,0-0.3,0-0.5,0c-0.2,0-0.3,0.1-0.5,0.2c-0.1,0.1-0.2,0.2-0.3,0.3    c-0.1,0.1-0.1,0.3-0.1,0.5c0,0.3,0.1,0.5,0.3,0.6c0.2,0.2,0.4,0.3,0.7,0.4c0,0,0.1,0,0.3,0.1c0.2,0.1,0.4,0.1,0.7,0.2    c0.2,0.1,0.5,0.1,0.7,0.2c0.2,0.1,0.4,0.1,0.5,0.1c0.3,0.1,0.5,0.2,0.7,0.3c0.2,0.1,0.3,0.3,0.5,0.5c0.1,0.2,0.2,0.4,0.3,0.6    c0.1,0.2,0.1,0.4,0.1,0.6c0,0.4-0.1,0.8-0.3,1.1c-0.2,0.3-0.4,0.6-0.7,0.8c-0.3,0.2-0.6,0.3-1,0.4c-0.4,0.1-0.7,0.1-1.1,0.1    c-0.4,0-0.9-0.1-1.2-0.2c-0.4-0.1-0.7-0.3-1-0.5c-0.3-0.2-0.5-0.5-0.7-0.9c-0.2-0.4-0.3-0.8-0.3-1.2H105.8z"></path>			<path d="M116.3,97.1h6.2v1.2h-2.5v6.6h-1.3v-6.6h-2.4V97.1z"></path>			<path d="M128.6,97.1h1.3v7.8h-1.3V97.1z"></path>			<path d="M136,97.1h6.2v1.2h-2.5v6.6h-1.3v-6.6H136V97.1z"></path>			<path d="M148.2,97.1h1.3v4.5c0,0.3,0,0.5,0,0.8c0,0.3,0.1,0.5,0.2,0.7c0.1,0.2,0.3,0.4,0.5,0.5s0.6,0.2,1,0.2    c0.4,0,0.8-0.1,1-0.2c0.2-0.1,0.4-0.3,0.5-0.5c0.1-0.2,0.2-0.5,0.2-0.7s0-0.5,0-0.8v-4.5h1.3v5c0,0.5-0.1,0.9-0.2,1.3    c-0.2,0.4-0.4,0.7-0.6,0.9c-0.3,0.3-0.6,0.4-1,0.6c-0.4,0.1-0.8,0.2-1.3,0.2c-0.5,0-0.9-0.1-1.3-0.2c-0.4-0.1-0.7-0.3-1-0.6    c-0.3-0.3-0.5-0.6-0.6-0.9c-0.2-0.4-0.2-0.8-0.2-1.3V97.1z"></path>			<path d="M166.4,99.5c-0.1-0.2-0.1-0.4-0.2-0.6c-0.1-0.2-0.2-0.4-0.4-0.5c-0.2-0.1-0.3-0.2-0.6-0.3c-0.2-0.1-0.5-0.1-0.7-0.1    c-0.4,0-0.8,0.1-1.1,0.3c-0.3,0.2-0.5,0.4-0.7,0.7c-0.2,0.3-0.3,0.6-0.4,1c-0.1,0.4-0.1,0.7-0.1,1.1c0,0.4,0,0.7,0.1,1.1    c0.1,0.4,0.2,0.7,0.4,1c0.2,0.3,0.4,0.5,0.7,0.7c0.3,0.2,0.7,0.3,1.1,0.3c0.3,0,0.6-0.1,0.8-0.2c0.2-0.1,0.4-0.3,0.6-0.4    s0.3-0.4,0.4-0.6c0.1-0.2,0.2-0.5,0.2-0.8h1.3c0,0.5-0.1,0.9-0.3,1.3c-0.2,0.4-0.4,0.7-0.7,1c-0.3,0.3-0.6,0.5-1,0.6    c-0.4,0.2-0.8,0.2-1.3,0.2c-0.6,0-1.1-0.1-1.5-0.3c-0.5-0.2-0.8-0.5-1.2-0.9c-0.3-0.4-0.6-0.8-0.7-1.3c-0.2-0.5-0.3-1-0.3-1.6    c0-0.6,0.1-1.1,0.3-1.6c0.2-0.5,0.4-0.9,0.7-1.3c0.3-0.4,0.7-0.7,1.2-0.9c0.5-0.2,1-0.3,1.5-0.3c0.4,0,0.8,0.1,1.2,0.2    c0.4,0.1,0.7,0.3,1,0.5c0.3,0.2,0.5,0.5,0.7,0.8c0.2,0.3,0.3,0.7,0.3,1.1H166.4z"></path>			<path d="M174.1,97.1h1.3v7.8h-1.3V97.1z"></path>			<path d="M185.5,96.9c0.6,0,1.1,0.1,1.5,0.3c0.5,0.2,0.8,0.5,1.2,0.9c0.3,0.4,0.6,0.8,0.7,1.3c0.2,0.5,0.3,1,0.3,1.6    c0,0.6-0.1,1.1-0.3,1.6c-0.2,0.5-0.4,0.9-0.7,1.3c-0.3,0.4-0.7,0.7-1.2,0.9s-1,0.3-1.5,0.3c-0.6,0-1.1-0.1-1.5-0.3    c-0.5-0.2-0.8-0.5-1.2-0.9c-0.3-0.4-0.6-0.8-0.7-1.3c-0.2-0.5-0.3-1-0.3-1.6c0-0.6,0.1-1.1,0.3-1.6c0.2-0.5,0.4-0.9,0.7-1.3    c0.3-0.4,0.7-0.7,1.2-0.9C184.4,97,184.9,96.9,185.5,96.9z M185.5,98c-0.4,0-0.8,0.1-1.1,0.3c-0.3,0.2-0.5,0.4-0.7,0.7    c-0.2,0.3-0.3,0.6-0.4,1c-0.1,0.4-0.1,0.7-0.1,1.1c0,0.4,0,0.7,0.1,1.1c0.1,0.4,0.2,0.7,0.4,1c0.2,0.3,0.4,0.5,0.7,0.7    c0.3,0.2,0.7,0.3,1.1,0.3c0.4,0,0.8-0.1,1.1-0.3c0.3-0.2,0.5-0.4,0.7-0.7s0.3-0.6,0.4-1c0.1-0.4,0.1-0.7,0.1-1.1    c0-0.4,0-0.7-0.1-1.1c-0.1-0.4-0.2-0.7-0.4-1c-0.2-0.3-0.4-0.5-0.7-0.7C186.3,98.1,185.9,98,185.5,98z M186,94.7h1.5l-1.5,1.6    H185L186,94.7z"></path>			<path d="M195.5,97.1h1.4l3.5,5.7h0v-5.7h1.3v7.8h-1.4l-3.5-5.7h0v5.7h-1.3V97.1z"></path>			<path d="M216.5,97.1h1.3v4.5c0,0.3,0,0.5,0,0.8c0,0.3,0.1,0.5,0.2,0.7c0.1,0.2,0.3,0.4,0.5,0.5s0.6,0.2,1,0.2    c0.4,0,0.8-0.1,1-0.2c0.2-0.1,0.4-0.3,0.5-0.5c0.1-0.2,0.2-0.5,0.2-0.7s0-0.5,0-0.8v-4.5h1.3v5c0,0.5-0.1,0.9-0.2,1.3    c-0.2,0.4-0.4,0.7-0.6,0.9c-0.3,0.3-0.6,0.4-1,0.6c-0.4,0.1-0.8,0.2-1.3,0.2c-0.5,0-0.9-0.1-1.3-0.2c-0.4-0.1-0.7-0.3-1-0.6    c-0.3-0.3-0.5-0.6-0.6-0.9c-0.2-0.4-0.2-0.8-0.2-1.3V97.1z"></path>			<path d="M229.5,97.1h1.4l3.5,5.7h0v-5.7h1.3v7.8h-1.4l-3.5-5.7h0v5.7h-1.3V97.1z"></path>			<path d="M242.4,97.1h1.3v7.8h-1.3V97.1z"></path>			<path d="M249.7,97.1h1.4l1.9,6.1h0l2-6.1h1.4l-2.6,7.8h-1.5L249.7,97.1z"></path>			<path d="M262.3,97.1h5.5v1.2h-4.2v2h3.9v1.1h-3.9v2.3h4.3v1.2h-5.6V97.1z"></path>			<path d="M274.2,97.1h3.7c0.8,0,1.5,0.2,1.9,0.6c0.4,0.4,0.6,0.9,0.6,1.5c0,0.4-0.1,0.7-0.2,0.9c-0.1,0.2-0.2,0.4-0.4,0.6    c-0.1,0.1-0.3,0.3-0.4,0.3c-0.1,0.1-0.2,0.1-0.3,0.1v0c0.1,0,0.2,0.1,0.4,0.1c0.1,0.1,0.3,0.2,0.4,0.3c0.1,0.1,0.2,0.3,0.3,0.5    c0.1,0.2,0.1,0.5,0.1,0.8c0,0.5,0,0.9,0.1,1.2c0.1,0.4,0.2,0.6,0.3,0.8h-1.4c-0.1-0.2-0.2-0.4-0.2-0.6c0-0.2,0-0.4,0-0.6    c0-0.4,0-0.7-0.1-0.9c0-0.3-0.1-0.5-0.2-0.6s-0.3-0.3-0.5-0.4c-0.2-0.1-0.5-0.1-0.8-0.1h-2v3.2h-1.3V97.1z M275.6,100.6h2.2    c0.4,0,0.8-0.1,1-0.3c0.2-0.2,0.3-0.5,0.3-0.9c0-0.2,0-0.4-0.1-0.6c-0.1-0.2-0.2-0.3-0.3-0.4c-0.1-0.1-0.3-0.1-0.4-0.2    c-0.2,0-0.3,0-0.5,0h-2.2V100.6z"></path>			<path d="M287.8,102.2c0,0.3,0.1,0.6,0.2,0.8c0.1,0.2,0.2,0.4,0.4,0.5c0.2,0.1,0.4,0.2,0.6,0.3c0.2,0.1,0.5,0.1,0.8,0.1    c0.3,0,0.5,0,0.8-0.1c0.2-0.1,0.4-0.2,0.5-0.3c0.1-0.1,0.2-0.2,0.3-0.4c0.1-0.1,0.1-0.3,0.1-0.4c0-0.3-0.1-0.5-0.2-0.7    c-0.1-0.1-0.3-0.2-0.4-0.3c-0.3-0.1-0.6-0.2-1-0.3c-0.4-0.1-0.8-0.2-1.3-0.4c-0.3-0.1-0.6-0.2-0.8-0.3c-0.2-0.1-0.4-0.3-0.5-0.5    c-0.1-0.2-0.2-0.4-0.3-0.6c-0.1-0.2-0.1-0.4-0.1-0.6c0-0.4,0.1-0.7,0.2-1s0.4-0.5,0.6-0.7c0.3-0.2,0.6-0.3,0.9-0.4    c0.3-0.1,0.7-0.1,1-0.1c0.4,0,0.8,0.1,1.1,0.2c0.4,0.1,0.7,0.3,0.9,0.5c0.3,0.2,0.5,0.5,0.6,0.8c0.2,0.3,0.2,0.7,0.2,1.1h-1.3    c0-0.5-0.2-0.9-0.5-1.1c-0.3-0.2-0.7-0.3-1.2-0.3c-0.2,0-0.3,0-0.5,0c-0.2,0-0.3,0.1-0.5,0.2c-0.1,0.1-0.2,0.2-0.3,0.3    c-0.1,0.1-0.1,0.3-0.1,0.5c0,0.3,0.1,0.5,0.3,0.6c0.2,0.2,0.4,0.3,0.7,0.4c0,0,0.1,0,0.3,0.1c0.2,0.1,0.4,0.1,0.7,0.2    c0.2,0.1,0.5,0.1,0.7,0.2c0.2,0.1,0.4,0.1,0.5,0.1c0.3,0.1,0.5,0.2,0.7,0.3c0.2,0.1,0.3,0.3,0.5,0.5c0.1,0.2,0.2,0.4,0.3,0.6    c0.1,0.2,0.1,0.4,0.1,0.6c0,0.4-0.1,0.8-0.3,1.1c-0.2,0.3-0.4,0.6-0.7,0.8c-0.3,0.2-0.6,0.3-1,0.4c-0.4,0.1-0.7,0.1-1.1,0.1    c-0.4,0-0.9-0.1-1.2-0.2c-0.4-0.1-0.7-0.3-1-0.5c-0.3-0.2-0.5-0.5-0.7-0.9c-0.2-0.4-0.3-0.8-0.3-1.2H287.8z"></path>			<path d="M299.1,97.1h1.3v7.8h-1.3V97.1z"></path>			<path d="M306.5,97.1h6.2v1.2h-2.5v6.6h-1.3v-6.6h-2.4V97.1z"></path>			<path d="M319.8,97.1h1.4l3,7.8h-1.4l-0.7-2.1H319l-0.7,2.1h-1.4L319.8,97.1z M319.3,101.7h2.4l-1.2-3.3h0L319.3,101.7z"></path>			<path d="M330.1,97.1h3.7c0.8,0,1.5,0.2,1.9,0.6c0.4,0.4,0.6,0.9,0.6,1.5c0,0.4-0.1,0.7-0.2,0.9c-0.1,0.2-0.2,0.4-0.4,0.6    c-0.1,0.1-0.3,0.3-0.4,0.3c-0.1,0.1-0.2,0.1-0.3,0.1v0c0.1,0,0.2,0.1,0.4,0.1c0.1,0.1,0.3,0.2,0.4,0.3c0.1,0.1,0.2,0.3,0.3,0.5    c0.1,0.2,0.1,0.5,0.1,0.8c0,0.5,0,0.9,0.1,1.2s0.2,0.6,0.3,0.8h-1.4c-0.1-0.2-0.2-0.4-0.2-0.6c0-0.2,0-0.4,0-0.6    c0-0.4,0-0.7-0.1-0.9c0-0.3-0.1-0.5-0.2-0.6c-0.1-0.2-0.3-0.3-0.5-0.4c-0.2-0.1-0.5-0.1-0.8-0.1h-2v3.2h-1.3V97.1z M331.4,100.6    h2.2c0.4,0,0.8-0.1,1-0.3c0.2-0.2,0.3-0.5,0.3-0.9c0-0.2,0-0.4-0.1-0.6c-0.1-0.2-0.2-0.3-0.3-0.4c-0.1-0.1-0.3-0.1-0.4-0.2    c-0.2,0-0.3,0-0.5,0h-2.2V100.6z"></path>			<path d="M342.8,97.1h1.3v7.8h-1.3V97.1z"></path>			<path d="M353,97.1h1.4l3,7.8h-1.4l-0.7-2.1h-3.1l-0.7,2.1H350L353,97.1z M352.5,101.7h2.4l-1.2-3.3h0L352.5,101.7z"></path>		</g>	</g>	<g>		<path class="st1" d="M459,95.9c0,15.8-13,24.1-26.8,24.1c-16.2,0-25.2-5.9-26.7-20.3l-0.1-1H423l0.1,1c0.5,4.6,3.2,7.4,8,7.4   c6.5,0,9.6-4.7,9.6-10.7c0-6.1-3.3-10.7-9.3-10.7c-4.5,0-7,1.9-8.6,6h-16.2l5-40.3h44.8V65H426l-2.1,14.7l2.5-4.5   c3.1-1.8,6.7-2.4,10.4-2.4C450.3,72.8,459,81.2,459,95.9z"></path>	</g>	<g class="st2">					<image style="overflow:visible;" width="128" height="167" transform="matrix(1 0 0 1 342 -3.3448)">		</image>	</g>	<path class="st3" d="M406,0l-19.3,33.6h0l-16.2,28.3v0.1l-12,21.4l12,6.3v0c18.6,9.3,36.1,19,37.5,35.2l16.6-91.2  C430.3,17.7,420.6,8.2,406,0z"></path>	<g>		<g>			<path class="st0" d="M490,119.5c-29.8,6.2-37.9-17.8-35.7-42.8c1-11.8,6.3-23.8,18.6-27.4c10.6-3,24.5-1.6,32,7.3    c4.1,5,5.8,11.4,6.3,17.6c-0.8-3-1.7-5.9-3.1-8.7c-3.9-8.6-11.6-13.1-20.9-13.4c-12.5-0.6-22.6,4-26.2,16.5    c-1.7,5.5-2.2,11.5-2.2,17.5c0,6,0.6,12,2.5,17.5C465.7,116.5,477.6,120.1,490,119.5L490,119.5z"></path>			<path class="st0" d="M493.7,85c-0.2-6.3-0.2-13.8-4.3-18.9c-1.9-2.2-5.3-2.5-7.8-1.2c-4.8,3.1-4.1,14.7-4.3,20    c0.2,5.4-0.5,16.9,4.3,20c2.4,1.3,5.9,1.1,7.7-1.1C493.4,98.7,493.5,91.3,493.7,85L493.7,85z M493.7,85c0,4.5-0.1,8.9-0.8,13.3    c-0.4,2.2-1,4.5-2.3,6.5c-2.1,3.3-6.6,4.4-10.3,3c-7.6-3.4-8-15.8-8.1-22.9c0.2-7.1,0.5-19.5,8.2-22.8    C494.3,58.2,493.6,75.9,493.7,85L493.7,85z"></path>		</g>	</g>	<g>		<path class="st1" d="M512,85c0,22.4-8.3,35-27.8,35s-27.8-12.6-27.8-35c0-22.5,8.3-35,27.8-35S512,62.5,512,85z M493.7,85   c0-16.7-3.3-22.1-9.4-22.1c-6.1,0-9.4,5.5-9.4,22.1c0,16.6,3.3,22.1,9.4,22.1C490.4,107.1,493.7,101.5,493.7,85z"></path>	</g>	<g>		<path class="st1" d="M444.7,131.1l-0.9,2.9h-3.1l4.1-11.3h3.6l4.1,11.3h-3.2l-0.9-2.9H444.7z M445.4,128.8h2.1l-1-3.5L445.4,128.8   z"></path>		<path class="st1" d="M461.9,129v4.9h-2.9v-4.4c0-0.3,0-0.8,0-1.2c-0.1-0.8-0.5-1.3-1.4-1.3c-0.9,0-1.5,0.9-1.5,2.8v4.1H453v-8.7   h2.9v1.4l0.8-1.1c0.5-0.3,1.2-0.5,2-0.5c1.8,0,2.9,0.8,3.1,2.4C461.8,127.8,461.9,128.3,461.9,129z M456.3,124.6h-1.6   c0-1.5,0.5-2.2,1.5-2.2c0.5,0,0.8,0,1.3,0.3c0.4,0.2,0.6,0.2,0.7,0.2c0.2,0,0.2-0.1,0.2-0.5h1.6c0,1.5-0.5,2.2-1.5,2.2   c-0.5,0-0.7-0.1-1.3-0.3c-0.4-0.2-0.6-0.2-0.7-0.2C456.3,124.1,456.3,124.2,456.3,124.6z"></path>		<path class="st1" d="M472.4,129.6c0,2.8-1.8,4.6-4.7,4.6c-2.9,0-4.7-1.8-4.7-4.6c0-2.8,1.8-4.6,4.7-4.6   C470.6,125,472.4,126.8,472.4,129.6z M469.4,129.6c0-1.7-0.6-2.6-1.7-2.6c-1,0-1.7,0.9-1.7,2.6c0,1.7,0.6,2.6,1.7,2.6   C468.8,132.2,469.4,131.4,469.4,129.6z"></path>		<path class="st1" d="M480.9,127.8h-2.9c-0.1-0.6-0.4-0.9-0.9-0.9c-0.4,0-0.7,0.3-0.7,0.6c0,0.5,0.4,0.8,2.1,1.2   c1.6,0.4,2.7,1.1,2.7,2.8c0,1.9-1.7,2.7-3.9,2.7c-2.4,0-4-1-4.2-2.9h2.9c0.2,0.7,0.7,1.1,1.3,1.1c0.5,0,0.9-0.2,0.9-0.7   c0-0.6-0.6-0.9-2.1-1.2c-1.7-0.4-2.7-1.2-2.7-2.6c0-1.7,1.5-2.8,3.8-2.8C479.5,125,480.7,126.2,480.9,127.8z"></path>	</g></g></svg>